<?xml version="1.0" encoding="UTF-8" standalone="no"?> <svg xmlns="http://www.w3.org/2000/svg" xmlns:xlink="http://www.w3.org/1999/xlink" xmlns:serif="http://www.serif.com/" width="166px" height="100px" version="1.1" xml:space="preserve" style="fill-rule:evenodd;clip-rule:evenodd;stroke-linejoin:round;stroke-miterlimit:2;"><g><g><path d="M46.262,9.302c-0,0 -2.019,4.195 -2.986,6.836c-0.77,2.104 -3.196,6.096 -3.196,6.096c0,-0 -3.142,4.072 -6.642,5.915c-3.567,1.878 -7.003,2.606 -10.864,3.164c-1.257,0.182 -4.051,1.002 -5.834,1.705c-1.705,0.671 -4.192,2.217 -4.838,2.61c-5.97,3.626 -7.866,9.308 -7.866,9.308l10.6,17.175c0,0 -0.044,14.722 0.358,19.778c0.253,3.185 0.697,9.244 0.97,12.03c0.237,2.425 1.167,5.641 1.635,5.826c0.439,0.173 1.404,-1.232 2.145,-4.487c0.721,-3.17 2.213,-12.028 3.59,-19.538c1.192,-6.496 2.339,-11.978 2.339,-11.978c0,-0 1.309,2.862 1.773,4.361c0.92,2.967 4.168,14.626 5.113,19.038c0.914,4.264 2.302,8.12 3.506,10.147c1.064,1.792 2.796,3.195 3.437,2.554c0.823,-0.823 -7.252,-62.199 -7.252,-62.199c-0,0 2.186,-0.366 4.2,-1.861c1.825,-1.356 3.765,-3.383 4.82,-4.754c1.263,-1.641 2.463,-3.607 3.274,-5.512c0.845,-1.99 1.583,-4.426 2.088,-6.491c0.613,-2.507 0.823,-6.379 0.725,-7.998c-0.117,-1.926 -1.095,-1.725 -1.095,-1.725Z" style="fill:#008dd2;"></path><ellipse cx="21.928" cy="25.387" rx="6.062" ry="6.049" style="fill:#008dd2;"></ellipse><path d="M0.183,43.893l-0.18,16.993c-0,-0 -0.211,6.34 2.959,12.536c4.317,8.438 11.163,7.881 11.163,7.881l-0.069,-40.274l-13.873,2.864Z" style="fill:#fecc00;"></path><path d="M27.918,43.895l0.18,16.992c0,0 0.211,6.34 -2.959,12.536c-4.317,8.439 -11.163,7.882 -11.163,7.882l0.069,-40.275l13.873,2.865Z" style="fill:#d7af00;"></path><path d="M35.133,16.722l9.811,2.982l2.842,-9.453l8.994,3.284l2.704,-9.314m-0,0l-1.8,-0.309l-2.083,6.703l-9.059,-3.345l-2.954,9.623l-7.814,-2.224l-0.641,2.053" style="fill:#ef7f1a;"></path><path d="M59.944,0l1.963,6.644l-7.329,-2.262l5.366,-4.382Z" style="fill:#ef7f1a;"></path></g><g><path d="M49.772,42.156l23.839,-0l-0,5.225l-2.328,-0l-0.577,-3.152l-0.598,-0.514l-6.449,0l0,19.191l0.701,0.481l2.843,0.166l0,1.393l-11.023,-0l0,-1.393l2.823,-0.166l0.721,-0.481l-0,-19.191l-6.449,0l-0.597,0.514l-0.598,3.152l-2.308,-0l0,-5.225Z" style="fill:#004360;fill-rule:nonzero;"></path><path d="M80.245,39.95l1.607,-0l0,10.35c1.662,-0.741 3.019,-1.266 4.069,-1.576c1.051,-0.309 1.968,-0.464 2.751,-0.464c1.854,-0 3.269,0.442 4.244,1.327c0.975,0.884 1.463,2.167 1.463,3.848l0,9.57l0.721,0.548l2.225,0.166l0,1.227l-9.189,-0l0,-1.227l1.978,-0.166l0.721,-0.548l0,-8.99c0,-1.271 -0.329,-2.172 -0.989,-2.703c-0.659,-0.531 -1.751,-0.796 -3.276,-0.796c-0.673,-0 -1.401,0.091 -2.184,0.273c-0.783,0.183 -1.627,0.462 -2.534,0.838l0,11.378l0.742,0.548l1.998,0.166l0,1.227l-9.251,-0l0,-1.227l2.287,-0.166l0.722,-0.548l-0,-20.783l-3.256,0l0,-1.061l5.151,-1.211Z" style="fill:#004360;fill-rule:nonzero;"></path><path d="M98.046,48.608l9.148,0l0,1.261l-2.225,0.132l-0.515,0.548l5.069,10.565l5.274,-10.565l-0.33,-0.548l-2.287,-0.132l0,-1.261l7.521,0l-0,1.261l-2.452,0.265l-8.447,16.504c-1.031,2.001 -2.081,3.453 -3.153,4.354c-1.071,0.901 -2.266,1.352 -3.585,1.352c-0.879,-0 -1.586,-0.175 -2.122,-0.523c-0.536,-0.348 -0.804,-0.804 -0.804,-1.368c0,-0.332 0.093,-0.653 0.279,-0.962c0.185,-0.31 0.456,-0.603 0.813,-0.879l4.059,1.293c0.618,-0.53 1.219,-1.233 1.803,-2.106c0.584,-0.874 1.123,-1.869 1.618,-2.986l-7.088,-14.745l-2.576,-0.199l0,-1.261Z" style="fill:#004360;fill-rule:nonzero;"></path><path d="M120.236,64.946l0,-1.227l2.287,-0.166l0.722,-0.548l-0,-12.29l-3.009,-0l0,-1.062l4.904,-1.211l1.607,0l0,1.858c1.69,-0.752 3.05,-1.28 4.08,-1.584c1.03,-0.304 1.936,-0.456 2.719,-0.456c1.841,-0 3.249,0.442 4.224,1.327c0.975,0.884 1.463,2.167 1.463,3.848l-0,9.57l0.721,0.548l2.266,0.166l0,1.227l-9.23,-0l0,-1.227l2.019,-0.166l0.721,-0.548l0,-8.99c0,-1.271 -0.326,-2.172 -0.978,-2.703c-0.653,-0.531 -1.748,-0.796 -3.287,-0.796c-0.673,-0 -1.401,0.091 -2.184,0.273c-0.783,0.183 -1.627,0.462 -2.534,0.838l0,11.378l0.721,0.548l2.019,0.166l0,1.227l-9.251,-0Z" style="fill:#004360;fill-rule:nonzero;"></path><path d="M143.992,64.946l0,-1.227l2.287,-0.166l0.721,-0.548l0,-20.783l-3.255,0l0,-1.061l5.151,-1.211l1.607,-0l0,16.338l0.804,-0l6.448,-5.806l-0.288,-0.481l-1.916,-0.132l-0,-1.261l8.015,0l-0,1.261l-2.699,0.265l-5.769,4.926l7.417,8.426l2.699,0.166l-0,1.294l-6.573,-0l0,-1.128l-5.707,-6.585l-2.431,0l0,5.772l0.742,0.548l1.998,0.166l0,1.227l-9.251,-0Z" style="fill:#004360;fill-rule:nonzero;"></path><path d="M57.654,99.527l-5.326,-19.821l-2.127,-0.419l-0,-1.92l9.974,0l0,1.839l-2.032,0.242l-0.252,0.451l3.214,12.29l4.365,-14.822l4.381,0l4.491,15.193l3.041,-12.419l-0.394,-0.467l-2.19,-0.355l-0,-1.952l7.611,0l-0,1.952l-2.033,0.419l-4.964,19.789l-4.065,0l-4.854,-15.918l-4.774,15.918l-4.066,0Z" style="fill:#004360;fill-rule:nonzero;"></path><path d="M92.432,89.286c-0,-1.527 -0.2,-2.65 -0.599,-3.371c-0.399,-0.72 -1.014,-1.08 -1.844,-1.08c-0.935,-0 -1.639,0.363 -2.111,1.088c-0.473,0.726 -0.709,1.804 -0.709,3.234l-0,0.129l5.263,-0Zm5.657,5.58l-0,3.048c-1.229,0.635 -2.49,1.105 -3.782,1.412c-1.292,0.306 -2.658,0.459 -4.097,0.459c-2.69,0 -4.825,-0.766 -6.406,-2.298c-1.581,-1.532 -2.371,-3.594 -2.371,-6.185c-0,-2.591 0.814,-4.674 2.442,-6.25c1.628,-1.575 3.782,-2.362 6.461,-2.362c2.49,-0 4.42,0.72 5.791,2.161c1.371,1.441 2.056,3.473 2.056,6.096l0,0.419l-11.125,0c0.032,1.635 0.47,2.925 1.316,3.871c0.846,0.946 1.972,1.419 3.38,1.419c1.093,0 2.159,-0.147 3.199,-0.443c1.04,-0.296 2.085,-0.745 3.136,-1.347Z" style="fill:#004360;fill-rule:nonzero;"></path><path d="M111.089,96.06l-0,-4.952c-1.734,0.226 -2.971,0.592 -3.711,1.097c-0.741,0.505 -1.111,1.231 -1.111,2.177c-0,0.689 0.226,1.245 0.678,1.67c0.451,0.424 1.045,0.637 1.78,0.637c0.336,-0 0.699,-0.054 1.087,-0.162c0.389,-0.107 0.815,-0.263 1.277,-0.467Zm-0,1.613c-1.156,0.763 -2.219,1.335 -3.191,1.717c-0.972,0.382 -1.867,0.573 -2.687,0.573c-1.387,-0 -2.518,-0.425 -3.396,-1.274c-0.877,-0.85 -1.315,-1.947 -1.315,-3.291c-0,-1.01 0.275,-1.919 0.827,-2.725c0.551,-0.807 1.284,-1.382 2.198,-1.726c0.735,-0.279 1.752,-0.591 3.049,-0.935c1.298,-0.344 2.823,-0.705 4.578,-1.081l-0,-0.968c-0,-1.064 -0.305,-1.87 -0.914,-2.419c-0.609,-0.548 -1.502,-0.822 -2.679,-0.822l-0.504,-0l-0,3.435l-3.845,-0c-0.714,-0 -1.216,-0.102 -1.505,-0.306c-0.289,-0.205 -0.433,-0.549 -0.433,-1.033c-0,-1.086 0.798,-2.034 2.395,-2.846c1.597,-0.812 3.572,-1.218 5.925,-1.218c1.429,0 2.647,0.188 3.656,0.565c1.008,0.376 1.791,0.935 2.348,1.677c0.336,0.441 0.577,0.954 0.724,1.54c0.147,0.586 0.221,1.535 0.221,2.847l-0,7.87l0.347,0.387l1.78,0.21l0,1.677l-7.138,0l-0.441,-1.854Z" style="fill:#004360;fill-rule:nonzero;"></path><path d="M119.74,99.527l-0,-1.677l1.875,-0.274l0.41,-0.387l-0,-18.628l-2.222,-0l-0,-1.629l5.972,-1.952l1.639,0l-0,22.096l0.457,0.532l1.97,0.242l-0,1.677l-10.101,0Z" style="fill:#004360;fill-rule:nonzero;"></path><path d="M133.197,86.076l-2.316,0l-0,-1.516l2.773,-1.774l2.033,-3.838l2.868,-0l-0,4.693l4.9,0l0,2.435l-4.9,0l-0,7.71c-0,1.129 0.212,1.889 0.638,2.282c0.425,0.392 1.247,0.588 2.466,0.588c0.252,0 0.525,-0.016 0.819,-0.048c0.294,-0.032 0.62,-0.081 0.977,-0.145l0,1.903c-1.145,0.441 -2.219,0.777 -3.222,1.008c-1.003,0.231 -1.894,0.347 -2.671,0.347c-0.851,-0 -1.607,-0.135 -2.269,-0.403c-0.662,-0.269 -1.177,-0.651 -1.545,-1.146c-0.199,-0.268 -0.341,-0.653 -0.425,-1.153c-0.084,-0.5 -0.126,-1.293 -0.126,-2.379l-0,-8.564Z" style="fill:#004360;fill-rule:nonzero;"></path><path d="M149.821,74.98l1.844,0l0,9.951c1.45,-0.763 2.647,-1.306 3.593,-1.629c0.945,-0.322 1.78,-0.483 2.505,-0.483c1.618,-0 2.803,0.475 3.554,1.427c0.751,0.952 1.126,2.465 1.126,4.54l0,8.403l0.363,0.419l1.733,0.161l0,1.758l-9.061,0l0,-1.758l1.293,-0.161l0.346,-0.419l0,-7.048c0,-1.441 -0.249,-2.433 -0.748,-2.976c-0.499,-0.543 -1.379,-0.814 -2.64,-0.814c-0.567,-0 -0.995,0.008 -1.284,0.024c-0.289,0.016 -0.549,0.04 -0.78,0.072l0,10.742l0.457,0.419l1.355,0.161l0,1.758l-9.202,0l-0,-1.758l1.654,-0.161l0.378,-0.419l0,-18.709l-2.284,0l-0,-1.58l5.798,-1.92Z" style="fill:#004360;fill-rule:nonzero;"></path></g></g></svg> 